<?xml version="1.0" encoding="utf-8"?>
<!-- Generator: Adobe Illustrator 27.7.0, SVG Export Plug-In . SVG Version: 6.00 Build 0)  -->
<svg version="1.1" xmlns="http://www.w3.org/2000/svg" xmlns:xlink="http://www.w3.org/1999/xlink" x="0px" y="0px"
	 viewBox="0 0 251.35 122.78" style="enable-background:new 0 0 251.35 122.78;" xml:space="preserve">
<style type="text/css">
	.st0{display:none;}
	.st1{display:inline;}
	.st2{font-family:'DancingScript-Regular';}
	.st3{font-size:136.2201px;}
	.st4{fill:none;stroke:#FFFFFF;stroke-width:6;stroke-miterlimit:10;}
</style>
<g id="Layer_1" class="st0">
	<text transform="matrix(0.9138 0 0 1 2.6806 100.1914)" class="st1 st2 st3">think</text>
</g>
<g id="Layer_2">
	<path class="st4" d="M32.1,21.33c0,0-61.22,132.73,8.08,62.2"/>
	<path class="st4" d="M8.1,55.86c0,0,51.92,31.59,69.55-47.51c0,0-26.69,1.71-31.35,89.14c0,0,34.29-72.24,28.16-5.63
		c0,0-3.43,23.51,23.02-5.39"/>
	<path class="st4" d="M123.69,33.33c0,0-8.57,1.96-1.96,4.9c6.61,2.94,4.41-2.45,3.18-3.67"/>
	<path class="st4" d="M115.61,57.08c0,0-29.88,60.73,2.45,39.92"/>
	<path class="st4" d="M136.43,66.63l-8.33,30.61c0,0,48.24-75.67,36.49,1.47c0,0,2.69,12.98,20.82-12.24"/>
	<path class="st4" d="M204.51,50.22c0,0,25.22-22.53,19.59-43.84c0,0-46.78,63.92-32.57,94.04c0,0,17.63-52.9,33.06-41.88
		c0,0,15.92,13.71-9.55,22.53c0,0-3.43,51.67,28.16-0.49"/>
</g>
</svg>
